PathFileType	4	(X/Y/Z)	OpenSim_Sub10_CSStiffKnee_Accel.trc
DataRate	CameraRate	NumFrames	NumMarkers	Units	OrigDataRate	OrigDataStartFrame	OrigNumFrames
100	100	38	8	m	100	1	8174
Frame#	Time	torso_imu_offset_imu	pelvis_imu_offset_imu	tibia_r_imu_offset_imu	femur_r_imu_offset_imu	tibia_l_imu_offset_imu	femur_l_imu_offset_imu	toes_r_imu_offset_imu	toes_l_imu_offset_imu
				X1	Y1	Z1	X2	Y2	Z2	X3	Y3	Z3	X4	Y4	Z4	X5	Y5	Z5	X6	Y6	Z6	X7	Y7	Z7	X8		Y8	Z8	

1	0	8.91259522	-0.14797543	6.92800536	9.46040535	0.72408891	2.99183653	9.69445160	0.84587788	1.71408447	9.65081003	0.22690459	1.14050629	9.71737552	-1.47564460	1.12830427	9.54290283	2.13367819	-1.27152232	4.87838581	-0.18440568	8.74006987	5.18601404	0.53325382	11.12856003
2	0.01000000	8.90713279	-0.19430334	6.87263611	9.45859539	0.73317816	3.05126081	9.71606998	0.78210228	1.72790097	9.70920574	0.24979801	1.09036550	9.71941727	-1.45436246	1.10521086	9.56801449	2.15080104	-1.28499365	4.85838510	-0.17391549	8.76726584	5.17823424	0.53495582	11.10051017
3	0.02000000	8.90272060	-0.24943851	6.95449821	9.48042280	0.69493592	3.04120608	9.81414420	0.69800806	1.66856029	9.77933689	0.23717732	1.10415030	9.68913673	-1.43810956	1.09867030	9.49251475	2.21388277	-1.23247271	4.85008775	-0.21886712	8.76750725	5.16931386	0.52237932	11.10193584
4	0.03000000	8.87929521	-0.25957021	6.92120243	9.49383666	0.75111573	3.03045005	9.88173416	0.66852438	1.64628930	9.82401714	0.21166183	1.12969458	9.63597149	-1.44183416	1.13617150	9.44347529	2.25005128	-1.22520285	4.84686732	-0.21698251	8.74005574	5.15442491	0.53206022	11.10945414
5	0.04000000	8.86366173	-0.25359092	6.89266034	9.53310512	0.77275758	3.07572364	9.80250732	0.68197704	1.58879914	9.78674325	0.21559212	1.12539566	9.60600265	-1.48219146	1.13084492	9.38602107	2.25992873	-1.18942703	4.85824250	-0.21526883	8.76191134	5.16533873	0.53619328	11.09161454
6	0.05000000	8.87352769	-0.24888431	6.90457604	9.50936453	0.78192827	3.05483821	9.76806259	0.71488974	1.54805315	9.75927957	0.15626133	1.17886662	9.63672201	-1.51716860	1.07034935	9.37744294	2.27963953	-1.20702371	4.86396874	-0.22804409	8.75478615	5.19255529	0.52422003	11.08509302
7	0.06000000	8.94583477	-0.26166780	6.88986576	9.49010503	0.81584519	3.05145476	9.77083816	0.75183231	1.53851388	9.75710489	0.14708745	1.31115391	9.64937870	-1.46467473	1.04059018	9.41421871	2.33679162	-1.27408533	4.82332975	-0.23382058	8.73825788	5.17140179	0.51954139	11.07282362
8	0.07000000	8.96123214	-0.25572324	6.90214748	9.49193804	0.82876713	3.03211999	9.76924189	0.76447809	1.57597688	9.80974151	0.19253602	1.37698077	9.64271227	-1.39487512	1.10753600	9.40267311	2.38931749	-1.26962794	4.85759665	-0.22864837	8.77261515	5.16174575	0.50626528	11.10130427
9	0.08000000	8.95996951	-0.26751672	6.89799176	9.49665259	0.81416944	3.00963679	9.77574179	0.74566065	1.62956722	9.85846682	0.20171016	1.37312955	9.64617156	-1.41298012	1.15344524	9.43621064	2.39821277	-1.24429540	4.85559194	-0.21189233	8.80192870	5.16944160	0.54217327	11.08941107
10	0.09000000	8.96975878	-0.24088201	6.88937934	9.49204848	0.83374836	3.03897070	9.76980159	0.66338403	1.67715560	9.82789855	0.16780984	1.28129643	9.64578509	-1.35437920	1.09372513	9.42323282	2.42539235	-1.21027494	4.84061956	-0.19852328	8.77854864	5.15472062	0.50188216	11.09475107
11	0.10000000	8.95027883	-0.20047575	6.95875326	9.49315149	0.80841869	3.02789107	9.77530529	0.64183209	1.63055311	9.82458773	0.18396874	1.17670620	9.70257855	-1.21387557	1.06781497	9.43807053	2.41505434	-1.17369077	4.87011809	-0.20033132	8.74085505	5.15871908	0.50265818	11.12847962
12	0.11000000	8.94686790	-0.22932926	6.93382862	9.51883918	0.75630306	2.98838734	9.74263870	0.62690948	1.57069789	9.75359349	0.20083152	1.02214960	9.72806945	-1.12969711	1.14382823	9.43063551	2.39497212	-1.18630574	4.86643920	-0.23642125	8.74953734	5.20575205	0.51759840	11.11830059
13	0.12000000	8.90526549	-0.25536627	6.94474661	9.51384528	0.74648709	2.99035874	9.68825624	0.67203869	1.59837960	9.65319453	0.13904437	0.85577075	9.67155534	-1.18426781	1.12981066	9.40556623	2.37405227	-1.22497613	4.87883904	-0.21781851	8.75908127	5.17687644	0.51967528	11.09912691
14	0.13000000	8.85654919	-0.30560506	6.97445076	9.50455792	0.74930847	3.01141385	9.64726779	0.76232133	1.61716171	9.51460942	-0.00118226	0.74058507	9.67581237	-1.18265620	1.11312296	9.38904359	2.32054827	-1.27878170	4.88346922	-0.22380866	8.74320892	5.15091443	0.51750276	11.11406994
15	0.14000000	8.84426118	-0.30222103	6.94590915	9.51242580	0.73426739	2.95296898	9.61280687	0.79295370	1.65688459	9.43824485	-0.10769501	0.71767952	9.73940707	-1.16164225	1.12961964	9.42651576	2.30199001	-1.31100003	4.84338436	-0.21887704	8.74810372	5.12575397	0.51504140	11.10395570
16	0.15000000	8.83101055	-0.30516335	6.97853057	9.49991011	0.73352908	2.96256359	9.68403966	0.81117056	1.73830752	9.50681988	-0.15873023	0.81993561	9.75405329	-1.22425852	1.15761327	9.43874813	2.31370964	-1.28929902	4.78936259	-0.18548222	8.76210521	5.12697246	0.51681331	11.11622652
17	0.16000000	8.84039498	-0.33052756	6.97327712	9.50188866	0.71946814	2.97755307	9.83743983	0.83636768	1.73039790	9.63407388	-0.13709501	0.93778234	9.70040034	-1.29051099	1.12779275	9.45039563	2.32897920	-1.23936779	4.78232918	-0.20528319	8.78553409	5.15460745	0.49995389	11.09417333
18	0.17000000	8.84969480	-0.30873720	6.97118161	9.52177545	0.70633487	2.94341105	9.96466543	0.87022650	1.69184083	9.76183086	0.02081626	0.97165548	9.70578884	-1.30877197	1.10810836	9.46163200	2.26126936	-1.22010552	4.79678708	-0.19791097	8.82122136	5.12241757	0.52823270	11.10276903
19	0.18000000	8.86195655	-0.30270178	7.00262665	9.52645343	0.73583935	2.94865054	9.97307564	0.88877842	1.59739201	9.84190035	0.14802854	0.97326089	9.72067854	-1.31811748	1.03805906	9.45924387	2.19532033	-1.20647522	4.80379299	-0.17330040	8.78122457	5.13843473	0.50697749	11.10745833
20	0.19000000	8.85408117	-0.31335065	7.04523221	9.51200401	0.76418251	2.94551488	9.89714828	0.84976931	1.50538482	9.90985351	0.21416948	0.97199823	9.74056774	-1.30790648	1.04132194	9.46993713	2.20710895	-1.23401524	4.77459866	-0.20212817	8.78573794	5.10088180	0.48675154	11.11927087
21	0.20000000	8.84316984	-0.28531661	7.00457789	9.50828583	0.77600989	2.96704828	9.89686617	0.74537551	1.50183509	9.93673712	0.13170715	0.95424215	9.72633506	-1.37921463	1.01522470	9.46604222	2.23888059	-1.27964062	4.76304637	-0.23517009	8.75689723	5.10017298	0.55938534	11.12729542
22	0.21000000	8.82340118	-0.26824200	6.99022038	9.48363194	0.79743034	2.98086465	9.87606140	0.58602774	1.52548706	9.85104955	-0.02574439	0.88561581	9.70557511	-1.43993359	1.01915952	9.46888351	2.33523415	-1.29532858	4.76881646	-0.23871291	8.76766479	5.11693226	0.50946635	11.12353130
23	0.22000000	8.84236320	-0.27487940	7.01817525	9.48774062	0.86586736	2.93585604	9.87203371	0.45102915	1.53684376	9.73458992	-0.14526484	0.75928767	9.75620467	-1.44751238	1.10365289	9.47754599	2.37372037	-1.28412833	4.75560083	-0.27130711	8.79381266	5.14789960	0.49347547	11.13560247
24	0.23000000	8.84074482	-0.29792108	6.98788605	9.51029129	0.88340592	2.88703699	9.82330474	0.39978430	1.50553299	9.61795105	-0.22876260	0.77846325	9.74190033	-1.47549826	1.14880068	9.46469709	2.38774556	-1.20514078	4.74287972	-0.24293622	8.76464665	5.13130934	0.50471364	11.12372945
25	0.24000000	8.83471762	-0.34035915	6.97759422	9.48267379	0.88966937	2.88468957	9.79391472	0.29516151	1.45889979	9.57400764	-0.19379636	0.92155112	9.70326730	-1.45678672	1.14452706	9.44432252	2.41405888	-1.14047948	4.75613199	-0.24416340	8.78176028	5.12585305	0.50480954	11.10645029
26	0.25000000	8.83147933	-0.33485831	6.99127996	9.48639028	0.86003822	2.89376998	9.85438456	0.26785543	1.43975481	9.63569418	-0.18767346	0.98292675	9.69414431	-1.37954577	1.14355586	9.42928822	2.42362759	-1.12454331	4.77246604	-0.30215368	8.80032729	5.14670079	0.52485075	11.10501230
27	0.26000000	8.82822682	-0.34811722	7.00086794	9.47624220	0.83904021	2.87457704	9.87551880	0.27716510	1.49906625	9.70093472	-0.16708141	0.91596176	9.69081933	-1.33737145	1.15374962	9.39756555	2.44236060	-1.15146886	4.76541204	-0.24410171	8.77151322	5.13529922	0.50358225	11.09730364
28	0.27000000	8.84087243	-0.36202366	7.00154228	9.47018414	0.83307000	2.86729541	9.86584433	0.32600116	1.57327161	9.74869521	-0.14989944	0.81462953	9.69249053	-1.30006345	1.14300402	9.42176481	2.45508519	-1.14392865	4.79047866	-0.22382889	8.76146188	5.10726745	0.53644246	11.07964041
29	0.28000000	8.81012670	-0.36854726	7.01221073	9.48986339	0.83108997	2.88082317	9.83096952	0.43208780	1.57925510	9.74714872	-0.19665351	0.75114755	9.70117867	-1.26018315	1.16990843	9.43253684	2.46874500	-1.12299879	4.76205774	-0.21463767	8.79160488	5.12270557	0.52605438	11.04733332
30	0.29000000	8.80207341	-0.33846657	7.02144285	9.49379232	0.86347104	2.89039633	9.81132550	0.57130885	1.54631934	9.71986841	-0.24978010	0.80487637	9.69289804	-1.23680472	1.16745061	9.40302704	2.47914271	-1.12660947	4.71757044	-0.22426505	8.82376373	5.11344017	0.48893315	11.09349165
31	0.30000000	8.79743782	-0.33357484	7.02741150	9.48120719	0.89415570	2.89195081	9.90790090	0.66427689	1.55247424	9.71696082	-0.24693300	0.84177389	9.67406399	-1.21316128	1.19761333	9.40001444	2.51586315	-1.10291482	4.76816402	-0.21107658	8.81211591	5.12468289	0.52388846	11.10996701
32	0.31000000	8.76851462	-0.35078417	7.01799557	9.47645332	0.89061347	2.86130232	9.93085426	0.70900141	1.53954223	9.72093439	-0.13771594	0.90917222	9.70074627	-1.15538533	1.21459951	9.40596173	2.51557891	-1.05069624	4.75790659	-0.18596851	8.84077106	5.11532369	0.54076944	11.07597769
33	0.32000000	8.78224559	-0.36636404	7.02165411	9.48227103	0.90312706	2.85483821	9.90504760	0.75427599	1.43489463	9.77103261	-0.04613377	0.90948641	9.71934124	-1.10148150	1.20464990	9.45289816	2.46139754	-1.03259719	4.74573387	-0.27026203	8.78014129	5.10739423	0.51739969	11.12701572
34	0.33000000	8.81371567	-0.36953822	7.04443147	9.51726142	0.88360942	2.86835648	9.86955086	0.81810327	1.39061107	9.82126293	-0.05198956	0.83684121	9.71199389	-1.13554496	1.19053274	9.45540197	2.40792674	-1.01210235	4.77791521	-0.27399228	8.76609972	5.11097569	0.50962531	11.08449895
35	0.34000000	8.81321141	-0.35360900	7.02117310	9.48844541	0.88182905	2.89140838	9.86484364	0.86009686	1.34656708	9.78044624	-0.02519482	0.83369773	9.68767500	-1.16372321	1.17402287	9.43280320	2.39692088	-1.05348883	4.75036323	-0.23051227	8.81237999	5.11306614	0.50480750	11.10433727
36	0.35000000	8.79539500	-0.36039583	7.01589362	9.45467262	0.91325835	2.88216655	9.88690615	0.96547630	1.35443503	9.66704561	-0.02350852	0.84608028	9.65212496	-1.14570693	1.23510175	9.42453956	2.41532530	-1.08278076	4.73307124	-0.25525517	8.78862992	5.09673963	0.53424027	11.11839792
37	0.36000000	8.84381665	-0.36872953	7.03993456	9.48166124	0.93708044	2.86393409	9.88590637	0.99998971	1.39018521	9.61509347	-0.03691418	0.77670530	9.67739424	-1.17984711	1.27487261	9.38745084	2.42345188	-1.07794917	4.72312949	-0.24343190	8.74566339	5.07513686	0.50159544	11.09077367
38	0.37000000	8.88745706	-0.37092937	7.14265454	9.49863140	0.94317475	2.85235783	9.92090986	0.98363367	1.44291157	9.63543695	0.01098102	0.73954504	9.73099872	-1.22699484	1.29745766	9.39538108	2.42801216	-1.10605127	4.77126273	-0.24385232	8.74026433	5.42906202	0.45469139	10.90635852
